<svg
  viewBox="0 0 491.115 491.115"
  xmlns="http://www.w3.org/2000/svg"
  width="1em"
  height="1em"
  fill="currentColor"
>
  <path d="M475.624,177.416l-154.417-13.033-60.067-142.8c-2.55-6.233-8.783-10.483-15.583-10.483s-13.033,3.967-15.583,10.483l-60.067,142.8L15.491,177.416c-6.8.567-12.75,5.1-14.733,11.617s0,13.6,5.1,18.133l117.017,101.15L87.741,459.049c-1.417,6.8,1.133,13.6,6.517,17.567,5.667,3.967,13.033,4.25,18.7.85l132.6-80.183,132.6,80.183c2.833,1.7,5.667,2.55,8.783,2.55,3.4,0,7.083-1.133,9.917-3.117,5.667-3.967,8.217-11.05,6.517-17.567l-35.133-150.733,117.017-101.15c5.1-4.533,7.083-11.617,5.1-18.133-1.983-6.517-7.933-11.05-14.733-11.617zM338.208,289.616c-4.817,4.25-6.8,10.483-5.383,16.717l28.333,121.55-106.817-64.6c-2.833-1.7-5.667-2.55-8.783-2.55-3.117,0-6.233.85-8.783,2.55l-106.817,64.6,28.333-121.55c1.417-6.233-.567-12.467-5.383-16.717l-94.35-81.6,124.383-10.483c6.233-.567,11.9-4.533,14.167-10.2l48.45-115.317,48.45,115.033c2.55,5.95,7.933,9.917,14.167,10.2l124.383,10.483-94.35,81.6z"/>
</svg>